<svg version="1.1" id="Layer_1" xmlns="http://www.w3.org/2000/svg" xmlns:xlink="http://www.w3.org/1999/xlink" x="0px" y="0px"
	 width="100%" viewBox="0 0 1024 576" enable-background="new 0 0 1024 576" xml:space="preserve">
<path fill="#000000" opacity="1.000000" stroke="none" 
	d="
M638.690796,276.343201 
	C639.520142,288.997833 640.627747,301.242218 641.552368,313.490265 
	C643.047791,333.300568 642.919739,353.301605 647.798157,372.815033 
	C650.496887,383.610077 646.462097,393.039124 638.403625,397.559570 
	C626.750671,404.096344 613.036682,399.091766 608.727722,386.443054 
	C604.954407,375.366669 603.506897,363.825989 602.626892,352.185547 
	C600.562622,324.878998 599.446045,297.521484 596.091919,270.281158 
	C594.186401,254.805649 590.175720,240.021698 586.406189,225.066833 
	C583.316895,212.810303 589.794739,201.199799 600.807556,198.869476 
	C613.393494,196.206284 624.687012,203.701324 627.171387,216.431061 
	C627.551025,218.376282 627.447083,220.445297 629.468750,222.093781 
	C634.960327,220.953506 639.918274,217.739609 645.611145,216.425278 
	C661.057007,212.859344 675.067444,215.622818 687.543457,225.187988 
	C690.594421,227.527145 692.534607,227.382782 695.342407,225.381271 
	C703.873352,219.300064 713.343872,216.210480 723.933533,216.681946 
	C729.615356,216.934921 734.868896,218.417679 739.207703,222.038406 
	C748.884033,230.113297 759.329529,237.333069 766.753845,247.894699 
	C774.183716,258.464264 778.825012,270.331940 780.997864,282.718567 
	C784.557617,303.010895 786.129517,323.575073 785.450745,344.282074 
	C785.080261,355.583832 782.838074,366.664124 782.757935,378.037018 
	C782.689270,387.769287 772.742493,395.202820 762.618042,395.108612 
	C752.282410,395.012451 744.134338,387.754578 742.596802,377.762695 
	C741.421204,370.122742 741.120789,362.524506 742.700928,354.973358 
	C746.527954,336.684265 743.651306,318.638672 741.434998,300.483185 
	C740.559021,293.307678 739.170959,286.466064 736.698914,279.694489 
	C734.060547,272.467163 729.114746,267.235962 723.322510,262.657318 
	C719.311035,259.486328 717.230652,259.880829 715.369873,264.640045 
	C712.521057,271.926483 711.422974,279.640717 711.044678,287.478638 
	C710.612427,296.431702 710.055481,305.386719 709.220215,314.309784 
	C708.565979,321.298523 701.083130,328.605286 693.641785,330.101044 
	C684.856934,331.866882 675.647034,327.686401 671.577698,319.991089 
	C667.979919,313.187408 667.298279,305.668457 666.979431,298.220642 
	C666.494629,286.893799 665.648315,275.641083 662.371277,264.750305 
	C661.439758,261.654449 661.499634,256.516083 657.160278,256.742462 
	C652.392700,256.991211 647.018616,258.259125 644.351685,263.228851 
	C642.159424,267.314056 640.526489,271.699402 638.690796,276.343201 
z"/>
<path fill="#000000" opacity="1.000000" stroke="none" 
	d="
M382.386292,346.269623 
	C383.301331,344.095551 384.597626,342.252869 384.630768,340.387756 
	C384.890930,325.760956 385.319458,311.120300 383.612671,296.534882 
	C383.220642,293.184601 381.168243,293.619049 378.882874,294.307648 
	C365.173279,298.438110 351.242981,298.509979 337.508820,295.152740 
	C326.952942,292.572357 317.243195,288.254578 310.414886,278.697357 
	C303.894897,269.571655 303.747742,259.541290 305.051147,249.498077 
	C307.026886,234.274033 312.307281,219.968521 322.739014,208.418823 
	C335.519409,194.268799 351.314087,187.129379 370.888062,190.391617 
	C376.084930,191.257736 381.339264,190.900314 386.625824,192.363373 
	C395.633179,194.856155 401.984222,200.878189 408.391815,206.800919 
	C412.659515,210.745636 414.613861,216.449173 414.198029,222.259827 
	C413.286743,234.994217 416.895721,246.912735 419.880737,258.989166 
	C422.794373,270.777161 424.935760,282.681732 425.188934,294.882874 
	C425.457764,307.840973 425.865479,320.797058 426.318085,333.750336 
	C426.833038,348.489532 423.505920,361.856720 414.435028,373.947662 
	C406.475769,384.556854 398.340240,394.587219 386.450134,401.145203 
	C376.601227,406.577362 365.999664,406.763641 355.833191,404.657074 
	C337.926605,400.946625 321.031128,393.614227 304.018188,387.009857 
	C293.637177,382.979950 289.352936,370.248413 293.794678,360.125031 
	C298.581329,349.215546 310.234619,344.984070 321.812866,349.378235 
	C335.476837,354.563995 349.047699,360.039154 363.186279,363.928802 
	C366.080780,364.725098 367.926849,363.991699 369.927307,362.244781 
	C375.015564,357.801392 378.745575,352.315582 382.386292,346.269623 
M372.893738,245.301071 
	C372.804932,241.972000 372.761017,238.640915 372.610291,235.314651 
	C372.521881,233.363724 371.886444,231.419769 369.643341,231.329666 
	C365.086731,231.146591 360.612427,230.352341 356.416656,233.900162 
	C350.954010,238.519196 348.803070,244.538345 346.917389,250.966080 
	C345.977905,254.168427 347.372253,255.487686 350.176758,255.589523 
	C354.497986,255.746460 358.879822,255.977890 363.148560,255.458969 
	C370.915955,254.514786 372.638214,252.618011 372.893738,245.301071 
z"/>
<path fill="#000000" opacity="1.000000" stroke="none" 
	d="
M518.013306,319.989288 
	C513.414368,329.362518 506.970001,337.416077 503.830261,347.773926 
	C511.415344,349.651215 518.693604,350.884125 526.169922,350.889404 
	C537.328125,350.897247 548.492371,350.678711 559.642700,350.977509 
	C569.438171,351.239990 578.469482,353.896515 582.157227,364.208160 
	C587.029236,377.831451 579.406860,391.655060 564.545227,392.188934 
	C550.462952,392.694855 536.316772,392.889282 522.256592,392.138245 
	C507.684601,391.359802 493.233521,388.925629 478.932190,385.868011 
	C475.543671,385.143524 472.115204,384.832855 468.843475,383.291290 
	C461.053436,379.620758 457.598114,373.332581 456.759521,365.146881 
	C455.459869,352.460663 460.484619,341.337097 465.484222,330.257874 
	C471.100098,317.812927 478.530670,306.354187 485.161804,294.462616 
	C491.108734,283.798065 496.224915,272.431458 494.930023,259.429871 
	C494.196777,252.067276 491.047211,246.148407 485.885498,241.071030 
	C483.078735,238.310165 480.827271,239.188187 478.967255,242.060562 
	C477.159515,244.852234 475.615082,247.813553 473.829926,250.620834 
	C467.710052,260.244873 455.305389,261.522675 447.287872,257.515564 
	C437.760010,252.753586 433.787262,241.070786 437.963226,230.933762 
	C442.418549,220.118515 448.633392,210.360214 458.367493,203.738647 
	C473.894745,193.176361 496.709473,193.632294 512.262695,208.317566 
	C530.855774,225.873001 539.100159,247.261169 536.137146,272.564606 
	C534.136292,289.651093 527.433289,305.213196 518.013306,319.989288 
z"/>
</svg>